# xmcd
#
# Track frame offsets: 
#        150
#        4803
#        24895
#        54903
#        77363
#        95889
#        118607
#        151615
#        179053
#        203324
#        228930
#        254780
#        279045
#        299874
#
# Disc length: 4035 seconds
#
# Revision: 0
# Processed by: cddbd v1.5.2PL0 Copyright (c) Steve Scherf et al.
# Submitted via: ExactAudioCopy v1.0b3
#
DISCID=b10fc10e
DTITLE=Various Artist - Tinh Ca Thoi Chien
DYEAR=1984
DGENRE=
TTITLE0=Minh Van - Loi gioi thieu
TTITLE1=Phuong Dung - Nang dep mien Nam
TTITLE2=Nhu Mai - Ho lo
TTITLE3=Duy Quang - Co lang gieng
TTITLE4=Thy Van - Toi yeu
TTITLE5=Luu Hong - Bong mat
TTITLE6=Thai Hien - Tinh ca
TTITLE7=Ngoc Lan - Cac anh di
TTITLE8=Elvis Phuong - Duong chieu
TTITLE9=Tra Mi - Nho nguoi ra di
TTITLE10=Mai Huong - Nuong chieu
TTITLE11=Luu Hong - Me toi
TTITLE12=Phuong Dung - Tieng ho mien Nam
TTITLE13=Minh Van - Loi ket
EXTD=
EXTT0=
EXTT1=
EXTT2=
EXTT3=
EXTT4=
EXTT5=
EXTT6=
EXTT7=
EXTT8=
EXTT9=
EXTT10=
EXTT11=
EXTT12=
EXTT13=
PLAYORDER=
